<svg xmlns="http://www.w3.org/2000/svg" xmlns:xlink="http://www.w3.org/1999/xlink" width="100" zoomAndPan="magnify" viewBox="0 0 75 74.999997" height="100" preserveAspectRatio="xMidYMid meet" version="1.0"><defs><clipPath id="b0ae355fef"><path d="M 58.109375 16.484375 L 67.097656 16.484375 L 67.097656 58.484375 L 58.109375 58.484375 Z M 58.109375 16.484375 " clip-rule="nonzero"/></clipPath><clipPath id="d5f83fdb4f"><path d="M 7.851562 16.484375 L 16.777344 16.484375 L 16.777344 58.484375 L 7.851562 58.484375 Z M 7.851562 16.484375 " clip-rule="nonzero"/></clipPath></defs><path fill="#ffffff" d="M 46.632812 47.199219 C 46.492188 47.199219 46.351562 47.144531 46.242188 47.039062 C 46.027344 46.824219 46.027344 46.472656 46.242188 46.257812 C 48.585938 43.914062 49.875 40.800781 49.875 37.488281 C 49.875 34.171875 48.585938 31.058594 46.242188 28.714844 C 46.027344 28.5 46.027344 28.148438 46.242188 27.933594 C 46.460938 27.71875 46.808594 27.71875 47.023438 27.933594 C 49.574219 30.484375 50.980469 33.878906 50.980469 37.488281 C 50.980469 41.09375 49.574219 44.488281 47.023438 47.039062 C 46.917969 47.144531 46.773438 47.199219 46.632812 47.199219 " fill-opacity="1" fill-rule="nonzero"/><path fill="#ffffff" d="M 28.3125 47.199219 C 28.171875 47.199219 28.03125 47.144531 27.925781 47.039062 C 22.660156 41.773438 22.660156 33.203125 27.925781 27.933594 C 28.140625 27.71875 28.488281 27.71875 28.703125 27.933594 C 28.917969 28.148438 28.917969 28.5 28.703125 28.714844 C 23.867188 33.550781 23.867188 41.421875 28.703125 46.257812 C 28.917969 46.472656 28.917969 46.824219 28.703125 47.039062 C 28.597656 47.144531 28.457031 47.199219 28.3125 47.199219 " fill-opacity="1" fill-rule="nonzero"/><path fill="#ffffff" d="M 50.535156 50.960938 C 50.425781 50.960938 50.320312 50.921875 50.242188 50.839844 C 50.078125 50.679688 50.078125 50.417969 50.242188 50.257812 C 57.28125 43.214844 57.28125 31.757812 50.242188 24.714844 C 50.078125 24.554688 50.078125 24.292969 50.242188 24.132812 C 50.402344 23.96875 50.664062 23.96875 50.824219 24.132812 C 58.1875 31.496094 58.1875 43.476562 50.824219 50.839844 C 50.746094 50.921875 50.640625 50.960938 50.535156 50.960938 " fill-opacity="1" fill-rule="nonzero"/><path fill="#ffffff" d="M 24.414062 50.960938 C 24.308594 50.960938 24.203125 50.921875 24.121094 50.839844 C 16.761719 43.476562 16.761719 31.496094 24.121094 24.132812 C 24.285156 23.96875 24.546875 23.96875 24.707031 24.132812 C 24.867188 24.292969 24.867188 24.554688 24.707031 24.714844 C 17.667969 31.757812 17.667969 43.214844 24.707031 50.257812 C 24.867188 50.417969 24.867188 50.679688 24.707031 50.839844 C 24.625 50.921875 24.519531 50.960938 24.414062 50.960938 " fill-opacity="1" fill-rule="nonzero"/><path fill="#ffffff" d="M 54.433594 54.726562 C 54.363281 54.726562 54.292969 54.699219 54.238281 54.644531 C 54.128906 54.535156 54.128906 54.363281 54.238281 54.253906 C 63.480469 45.007812 63.480469 29.964844 54.238281 20.71875 C 54.128906 20.609375 54.128906 20.4375 54.238281 20.328125 C 54.34375 20.222656 54.519531 20.222656 54.628906 20.328125 C 59.210938 24.910156 61.734375 31.003906 61.734375 37.488281 C 61.734375 43.96875 59.210938 50.0625 54.628906 54.644531 C 54.574219 54.699219 54.503906 54.726562 54.433594 54.726562 " fill-opacity="1" fill-rule="nonzero"/><path fill="#ffffff" d="M 20.515625 54.726562 C 20.445312 54.726562 20.375 54.699219 20.320312 54.644531 C 10.859375 45.183594 10.859375 29.789062 20.320312 20.328125 C 20.429688 20.222656 20.601562 20.222656 20.710938 20.328125 C 20.816406 20.4375 20.816406 20.609375 20.710938 20.71875 C 11.464844 29.964844 11.464844 45.007812 20.710938 54.253906 C 20.816406 54.363281 20.816406 54.535156 20.710938 54.644531 C 20.65625 54.699219 20.585938 54.726562 20.515625 54.726562 " fill-opacity="1" fill-rule="nonzero"/><g clip-path="url(#b0ae355fef)"><path fill="#ffffff" d="M 58.332031 58.488281 C 58.296875 58.488281 58.261719 58.472656 58.234375 58.445312 C 58.179688 58.394531 58.179688 58.304688 58.234375 58.25 C 63.78125 52.707031 66.835938 45.332031 66.835938 37.488281 C 66.835938 29.640625 63.78125 22.265625 58.234375 16.71875 C 58.179688 16.667969 58.179688 16.578125 58.234375 16.527344 C 58.289062 16.472656 58.375 16.472656 58.429688 16.527344 C 69.984375 28.082031 69.984375 46.890625 58.429688 58.445312 C 58.402344 58.472656 58.367188 58.488281 58.332031 58.488281 " fill-opacity="1" fill-rule="nonzero"/></g><g clip-path="url(#d5f83fdb4f)"><path fill="#ffffff" d="M 16.617188 58.488281 C 16.582031 58.488281 16.546875 58.472656 16.519531 58.445312 C 4.960938 46.890625 4.960938 28.082031 16.519531 16.527344 C 16.570312 16.472656 16.660156 16.472656 16.710938 16.527344 C 16.765625 16.578125 16.765625 16.667969 16.710938 16.71875 C 11.167969 22.265625 8.113281 29.640625 8.113281 37.488281 C 8.113281 45.332031 11.167969 52.707031 16.710938 58.25 C 16.765625 58.304688 16.765625 58.394531 16.710938 58.445312 C 16.6875 58.472656 16.652344 58.488281 16.617188 58.488281 " fill-opacity="1" fill-rule="nonzero"/></g><path fill="#38b6ff" d="M 47.988281 26.988281 C 48.675781 27.675781 49.292969 28.425781 49.835938 29.238281 C 50.375 30.046875 50.835938 30.902344 51.207031 31.804688 C 51.582031 32.703125 51.863281 33.632812 52.050781 34.589844 C 52.242188 35.546875 52.335938 36.511719 52.335938 37.488281 C 52.335938 38.460938 52.242188 39.425781 52.050781 40.382812 C 51.863281 41.339844 51.582031 42.269531 51.207031 43.167969 C 50.835938 44.070312 50.375 44.925781 49.835938 45.738281 C 49.292969 46.546875 48.679688 47.296875 47.988281 47.988281 C 47.300781 48.675781 46.550781 49.292969 45.738281 49.832031 C 44.925781 50.375 44.070312 50.832031 43.171875 51.207031 C 42.269531 51.578125 41.339844 51.859375 40.386719 52.050781 C 39.429688 52.242188 38.464844 52.335938 37.488281 52.335938 C 36.511719 52.335938 35.546875 52.242188 34.589844 52.050781 C 33.636719 51.859375 32.707031 51.578125 31.804688 51.207031 C 30.90625 50.832031 30.050781 50.375 29.238281 49.835938 C 28.425781 49.292969 27.675781 48.675781 26.988281 47.988281 C 26.296875 47.296875 25.683594 46.546875 25.140625 45.738281 C 24.597656 44.925781 24.140625 44.070312 23.769531 43.171875 C 23.394531 42.269531 23.113281 41.339844 22.921875 40.382812 C 22.734375 39.429688 22.636719 38.460938 22.636719 37.488281 C 22.636719 36.511719 22.734375 35.546875 22.921875 34.589844 C 23.113281 33.632812 23.394531 32.707031 23.769531 31.804688 C 24.140625 30.902344 24.597656 30.046875 25.140625 29.238281 C 25.683594 28.425781 26.296875 27.675781 26.988281 26.988281 C 27.675781 26.296875 28.425781 25.683594 29.238281 25.140625 C 30.046875 24.597656 30.902344 24.140625 31.804688 23.769531 C 32.707031 23.394531 33.632812 23.113281 34.589844 22.921875 C 35.546875 22.730469 36.511719 22.636719 37.488281 22.636719 C 38.460938 22.636719 39.429688 22.730469 40.386719 22.921875 C 41.339844 23.113281 42.269531 23.394531 43.171875 23.765625 C 44.070312 24.140625 44.925781 24.597656 45.738281 25.140625 C 46.546875 25.679688 47.296875 26.296875 47.988281 26.988281 Z M 47.988281 26.988281 " fill-opacity="1" fill-rule="nonzero"/><path fill="#ffffff" d="M 39.355469 37.621094 C 39.425781 37.5625 39.441406 37.457031 39.382812 37.382812 C 39.324219 37.3125 39.21875 37.296875 39.144531 37.355469 L 38.261719 38.054688 L 37.488281 38.671875 L 36.714844 38.054688 L 35.832031 37.355469 C 35.757812 37.296875 35.652344 37.3125 35.59375 37.382812 C 35.535156 37.457031 35.546875 37.5625 35.621094 37.621094 L 36.5 38.320312 L 37.375 39.015625 C 37.433594 39.070312 37.527344 39.074219 37.59375 39.019531 L 38.472656 38.320312 Z M 39.355469 37.621094 " fill-opacity="1" fill-rule="nonzero"/><path fill="#ffffff" d="M 41.324219 42.125 C 41.324219 42.363281 41.132812 42.558594 40.890625 42.558594 C 40.652344 42.558594 40.457031 42.363281 40.457031 42.125 C 40.457031 41.886719 40.652344 41.691406 40.890625 41.691406 C 41.132812 41.691406 41.324219 41.886719 41.324219 42.125 Z M 40.890625 40.597656 C 40.652344 40.597656 40.457031 40.40625 40.457031 40.164062 C 40.457031 39.925781 40.652344 39.730469 40.890625 39.730469 C 41.132812 39.730469 41.328125 39.925781 41.328125 40.164062 C 41.324219 40.40625 41.132812 40.597656 40.890625 40.597656 Z M 41.996094 38.886719 L 37.761719 38.886719 L 37.59375 39.019531 C 37.527344 39.074219 37.433594 39.070312 37.375 39.015625 L 37.214844 38.886719 L 32.980469 38.886719 L 32.980469 45.101562 L 41.996094 45.101562 Z M 39.789062 39.730469 L 39.789062 44.261719 L 33.933594 44.261719 L 33.933594 39.730469 Z M 39.789062 39.730469 " fill-opacity="1" fill-rule="evenodd"/><path fill="#ffffff" d="M 32.035156 33.726562 C 29.796875 33.726562 27.984375 35.542969 27.984375 37.78125 C 27.984375 40.015625 29.796875 41.832031 32.035156 41.832031 L 32.640625 41.832031 L 32.640625 38.546875 L 36.242188 38.546875 L 35.410156 37.886719 C 35.191406 37.710938 35.15625 37.390625 35.328125 37.171875 C 35.503906 36.953125 35.824219 36.917969 36.042969 37.089844 L 37.488281 38.238281 L 38.933594 37.089844 C 39.152344 36.917969 39.472656 36.953125 39.648438 37.171875 C 39.820312 37.390625 39.785156 37.710938 39.566406 37.886719 L 38.734375 38.546875 L 42.335938 38.546875 L 42.335938 41.832031 L 42.941406 41.832031 C 45.179688 41.832031 46.992188 40.015625 46.992188 37.78125 C 46.992188 35.542969 45.179688 33.726562 42.941406 33.726562 C 42.449219 33.726562 41.976562 33.816406 41.539062 33.976562 C 41.539062 33.957031 41.539062 33.941406 41.539062 33.921875 C 41.539062 31.683594 39.726562 29.871094 37.488281 29.871094 C 35.25 29.871094 33.4375 31.683594 33.4375 33.921875 C 33.4375 33.941406 33.4375 33.957031 33.4375 33.976562 C 33 33.816406 32.527344 33.726562 32.035156 33.726562 Z M 32.035156 33.726562 " fill-opacity="1" fill-rule="evenodd"/></svg>