<svg xmlns="http://www.w3.org/2000/svg" xmlns:xlink="http://www.w3.org/1999/xlink" width="100" zoomAndPan="magnify" viewBox="0 0 75 52.499999" height="70" preserveAspectRatio="xMidYMid meet" version="1.0"><defs><clipPath id="fede03faac"><path d="M 62.324219 0.6875 L 73.148438 0.6875 L 73.148438 51.277344 L 62.324219 51.277344 Z M 62.324219 0.6875 " clip-rule="nonzero"/></clipPath><clipPath id="e9792f3f34"><path d="M 1.789062 0.6875 L 12.539062 0.6875 L 12.539062 51.277344 L 1.789062 51.277344 Z M 1.789062 0.6875 " clip-rule="nonzero"/></clipPath></defs><path fill="#ffffff" d="M 48.503906 37.6875 C 48.332031 37.6875 48.160156 37.621094 48.03125 37.492188 C 47.773438 37.230469 47.773438 36.8125 48.03125 36.550781 C 50.851562 33.730469 52.40625 29.976562 52.40625 25.984375 C 52.40625 21.996094 50.851562 18.242188 48.03125 15.421875 C 47.773438 15.160156 47.773438 14.742188 48.03125 14.480469 C 48.292969 14.222656 48.710938 14.222656 48.972656 14.480469 C 52.042969 17.554688 53.734375 21.640625 53.734375 25.984375 C 53.734375 30.332031 52.042969 34.417969 48.972656 37.492188 C 48.839844 37.621094 48.671875 37.6875 48.503906 37.6875 " fill-opacity="1" fill-rule="nonzero"/><path fill="#ffffff" d="M 26.4375 37.6875 C 26.265625 37.6875 26.097656 37.621094 25.964844 37.492188 C 19.625 31.148438 19.625 20.824219 25.964844 14.480469 C 26.226562 14.222656 26.644531 14.222656 26.90625 14.480469 C 27.164062 14.742188 27.164062 15.160156 26.90625 15.421875 C 21.082031 21.246094 21.082031 30.726562 26.90625 36.550781 C 27.164062 36.8125 27.164062 37.230469 26.90625 37.492188 C 26.777344 37.621094 26.605469 37.6875 26.4375 37.6875 " fill-opacity="1" fill-rule="nonzero"/><path fill="#ffffff" d="M 53.199219 42.21875 C 53.070312 42.21875 52.945312 42.167969 52.847656 42.070312 C 52.652344 41.875 52.652344 41.5625 52.847656 41.367188 C 61.324219 32.886719 61.324219 19.085938 52.847656 10.605469 C 52.652344 10.410156 52.652344 10.09375 52.847656 9.898438 C 53.042969 9.707031 53.355469 9.707031 53.550781 9.898438 C 62.417969 18.769531 62.417969 33.203125 53.550781 42.070312 C 53.453125 42.167969 53.328125 42.21875 53.199219 42.21875 " fill-opacity="1" fill-rule="nonzero"/><path fill="#ffffff" d="M 21.738281 42.21875 C 21.609375 42.21875 21.484375 42.167969 21.386719 42.070312 C 12.519531 33.203125 12.519531 18.769531 21.386719 9.898438 C 21.582031 9.707031 21.898438 9.707031 22.089844 9.898438 C 22.285156 10.09375 22.285156 10.410156 22.089844 10.605469 C 13.613281 19.085938 13.613281 32.886719 22.089844 41.367188 C 22.285156 41.5625 22.285156 41.875 22.089844 42.070312 C 21.996094 42.167969 21.867188 42.21875 21.738281 42.21875 " fill-opacity="1" fill-rule="nonzero"/><path fill="#ffffff" d="M 57.894531 46.75 C 57.8125 46.75 57.726562 46.71875 57.660156 46.652344 C 57.53125 46.523438 57.53125 46.3125 57.660156 46.183594 C 68.792969 35.046875 68.792969 16.925781 57.660156 5.789062 C 57.53125 5.660156 57.53125 5.449219 57.660156 5.320312 C 57.789062 5.191406 58 5.191406 58.128906 5.320312 C 63.648438 10.839844 66.6875 18.179688 66.6875 25.984375 C 66.6875 33.792969 63.648438 41.132812 58.128906 46.652344 C 58.066406 46.71875 57.980469 46.75 57.894531 46.75 " fill-opacity="1" fill-rule="nonzero"/><path fill="#ffffff" d="M 17.042969 46.75 C 16.957031 46.75 16.871094 46.71875 16.808594 46.652344 C 5.414062 35.257812 5.414062 16.714844 16.808594 5.320312 C 16.9375 5.191406 17.148438 5.191406 17.277344 5.320312 C 17.40625 5.449219 17.40625 5.660156 17.277344 5.789062 C 6.144531 16.925781 6.144531 35.046875 17.277344 46.183594 C 17.40625 46.3125 17.40625 46.523438 17.277344 46.652344 C 17.210938 46.71875 17.128906 46.75 17.042969 46.75 " fill-opacity="1" fill-rule="nonzero"/><g clip-path="url(#fede03faac)"><path fill="#ffffff" d="M 62.59375 51.28125 C 62.550781 51.28125 62.507812 51.265625 62.476562 51.234375 C 62.410156 51.167969 62.410156 51.0625 62.476562 50.996094 C 69.152344 44.316406 72.832031 35.433594 72.832031 25.984375 C 72.832031 16.539062 69.152344 7.65625 62.476562 0.972656 C 62.410156 0.910156 62.410156 0.804688 62.476562 0.738281 C 62.539062 0.675781 62.644531 0.675781 62.710938 0.738281 C 76.628906 14.660156 76.628906 37.3125 62.710938 51.234375 C 62.679688 51.265625 62.636719 51.28125 62.59375 51.28125 " fill-opacity="1" fill-rule="nonzero"/></g><g clip-path="url(#e9792f3f34)"><path fill="#ffffff" d="M 12.34375 51.28125 C 12.300781 51.28125 12.261719 51.265625 12.226562 51.234375 C -1.691406 37.3125 -1.691406 14.660156 12.226562 0.738281 C 12.292969 0.675781 12.398438 0.675781 12.460938 0.738281 C 12.527344 0.804688 12.527344 0.910156 12.460938 0.972656 C 5.78125 7.65625 2.105469 16.539062 2.105469 25.984375 C 2.105469 35.433594 5.78125 44.316406 12.460938 50.996094 C 12.527344 51.0625 12.527344 51.167969 12.460938 51.234375 C 12.429688 51.265625 12.386719 51.28125 12.34375 51.28125 " fill-opacity="1" fill-rule="nonzero"/></g><path fill="#38b6ff" d="M 50.132812 13.339844 C 50.546875 13.753906 50.941406 14.1875 51.3125 14.640625 C 51.683594 15.09375 52.03125 15.5625 52.355469 16.050781 C 52.683594 16.535156 52.984375 17.039062 53.257812 17.554688 C 53.535156 18.070312 53.785156 18.601562 54.011719 19.140625 C 54.234375 19.683594 54.429688 20.234375 54.601562 20.792969 C 54.773438 21.355469 54.914062 21.921875 55.027344 22.496094 C 55.140625 23.070312 55.226562 23.648438 55.285156 24.234375 C 55.34375 24.816406 55.371094 25.402344 55.371094 25.988281 C 55.371094 26.570312 55.34375 27.15625 55.285156 27.738281 C 55.226562 28.324219 55.140625 28.902344 55.027344 29.476562 C 54.914062 30.050781 54.773438 30.617188 54.601562 31.179688 C 54.433594 31.738281 54.234375 32.289062 54.011719 32.832031 C 53.785156 33.371094 53.535156 33.902344 53.261719 34.417969 C 52.984375 34.933594 52.683594 35.4375 52.359375 35.921875 C 52.03125 36.410156 51.683594 36.878906 51.3125 37.332031 C 50.941406 37.785156 50.546875 38.21875 50.132812 38.632812 C 49.71875 39.046875 49.285156 39.441406 48.832031 39.8125 C 48.378906 40.183594 47.910156 40.53125 47.421875 40.859375 C 46.9375 41.183594 46.433594 41.484375 45.917969 41.761719 C 45.402344 42.035156 44.871094 42.289062 44.332031 42.511719 C 43.789062 42.734375 43.238281 42.933594 42.679688 43.101562 C 42.117188 43.273438 41.550781 43.414062 40.976562 43.527344 C 40.402344 43.644531 39.820312 43.730469 39.238281 43.785156 C 38.65625 43.84375 38.070312 43.871094 37.484375 43.871094 C 36.898438 43.871094 36.316406 43.84375 35.734375 43.785156 C 35.148438 43.730469 34.570312 43.644531 33.996094 43.53125 C 33.421875 43.414062 32.855469 43.273438 32.292969 43.101562 C 31.734375 42.933594 31.183594 42.734375 30.640625 42.511719 C 30.101562 42.289062 29.570312 42.039062 29.054688 41.761719 C 28.539062 41.484375 28.035156 41.183594 27.546875 40.859375 C 27.0625 40.535156 26.589844 40.183594 26.140625 39.8125 C 25.6875 39.441406 25.253906 39.046875 24.839844 38.632812 C 24.425781 38.21875 24.03125 37.785156 23.660156 37.332031 C 23.289062 36.882812 22.9375 36.410156 22.613281 35.925781 C 22.289062 35.4375 21.988281 34.933594 21.710938 34.417969 C 21.433594 33.902344 21.183594 33.371094 20.960938 32.832031 C 20.738281 32.289062 20.539062 31.738281 20.371094 31.179688 C 20.199219 30.617188 20.058594 30.050781 19.941406 29.476562 C 19.828125 28.902344 19.742188 28.324219 19.683594 27.738281 C 19.628906 27.15625 19.597656 26.574219 19.597656 25.988281 C 19.597656 25.402344 19.628906 24.816406 19.683594 24.234375 C 19.742188 23.652344 19.828125 23.070312 19.941406 22.496094 C 20.058594 21.921875 20.199219 21.355469 20.371094 20.792969 C 20.539062 20.234375 20.738281 19.683594 20.960938 19.140625 C 21.183594 18.601562 21.433594 18.070312 21.710938 17.554688 C 21.988281 17.039062 22.289062 16.535156 22.613281 16.050781 C 22.9375 15.5625 23.289062 15.09375 23.660156 14.640625 C 24.03125 14.1875 24.421875 13.753906 24.835938 13.339844 C 25.253906 12.925781 25.683594 12.53125 26.136719 12.160156 C 26.589844 11.789062 27.0625 11.441406 27.546875 11.113281 C 28.035156 10.789062 28.535156 10.488281 29.054688 10.210938 C 29.570312 9.9375 30.097656 9.6875 30.640625 9.460938 C 31.183594 9.238281 31.734375 9.039062 32.292969 8.871094 C 32.855469 8.699219 33.421875 8.558594 33.996094 8.445312 C 34.570312 8.328125 35.148438 8.242188 35.730469 8.1875 C 36.316406 8.128906 36.898438 8.101562 37.484375 8.101562 C 38.070312 8.101562 38.65625 8.128906 39.238281 8.1875 C 39.820312 8.242188 40.398438 8.328125 40.976562 8.445312 C 41.550781 8.558594 42.117188 8.699219 42.675781 8.871094 C 43.238281 9.039062 43.789062 9.238281 44.328125 9.460938 C 44.871094 9.6875 45.398438 9.9375 45.917969 10.210938 C 46.433594 10.488281 46.933594 10.789062 47.421875 11.113281 C 47.910156 11.441406 48.378906 11.789062 48.832031 12.160156 C 49.285156 12.53125 49.71875 12.925781 50.132812 13.339844 Z M 50.132812 13.339844 " fill-opacity="1" fill-rule="nonzero"/><path fill="#ffffff" d="M 39.734375 26.148438 C 39.820312 26.078125 39.835938 25.949219 39.765625 25.863281 C 39.695312 25.773438 39.566406 25.757812 39.480469 25.828125 L 38.417969 26.671875 L 37.484375 27.414062 L 36.550781 26.671875 L 35.492188 25.828125 C 35.402344 25.757812 35.273438 25.773438 35.203125 25.863281 C 35.132812 25.949219 35.148438 26.078125 35.238281 26.148438 L 36.296875 26.992188 L 37.347656 27.828125 C 37.421875 27.890625 37.53125 27.898438 37.613281 27.835938 L 38.671875 26.992188 Z M 39.734375 26.148438 " fill-opacity="1" fill-rule="nonzero"/><path fill="#ffffff" d="M 42.109375 31.574219 C 42.109375 31.863281 41.875 32.097656 41.585938 32.097656 C 41.296875 32.097656 41.0625 31.863281 41.0625 31.574219 C 41.0625 31.285156 41.296875 31.050781 41.585938 31.050781 C 41.875 31.050781 42.109375 31.285156 42.109375 31.574219 Z M 41.585938 29.734375 C 41.296875 29.734375 41.0625 29.5 41.0625 29.210938 C 41.0625 28.921875 41.296875 28.691406 41.585938 28.691406 C 41.875 28.691406 42.109375 28.921875 42.109375 29.210938 C 42.109375 29.5 41.875 29.734375 41.585938 29.734375 Z M 42.914062 27.675781 L 37.8125 27.675781 L 37.613281 27.835938 C 37.53125 27.898438 37.421875 27.890625 37.347656 27.824219 L 37.15625 27.675781 L 32.054688 27.675781 L 32.054688 35.160156 L 42.914062 35.160156 Z M 40.257812 28.691406 L 40.257812 34.144531 L 33.203125 34.144531 L 33.203125 28.691406 Z M 40.257812 28.691406 " fill-opacity="1" fill-rule="evenodd"/><path fill="#ffffff" d="M 30.917969 21.460938 C 28.222656 21.460938 26.039062 23.644531 26.039062 26.339844 C 26.039062 29.035156 28.222656 31.21875 30.917969 31.21875 L 31.648438 31.21875 L 31.648438 27.265625 L 35.984375 27.265625 L 34.984375 26.46875 C 34.71875 26.257812 34.675781 25.871094 34.886719 25.609375 C 35.097656 25.34375 35.484375 25.300781 35.746094 25.507812 L 37.484375 26.890625 L 39.226562 25.507812 C 39.488281 25.300781 39.875 25.34375 40.085938 25.609375 C 40.296875 25.871094 40.253906 26.257812 39.988281 26.46875 L 38.984375 27.265625 L 43.324219 27.265625 L 43.324219 31.21875 L 44.054688 31.21875 C 46.746094 31.21875 48.933594 29.035156 48.933594 26.339844 C 48.933594 23.644531 46.746094 21.460938 44.054688 21.460938 C 43.460938 21.460938 42.890625 21.566406 42.363281 21.757812 C 42.363281 21.738281 42.367188 21.714844 42.367188 21.691406 C 42.367188 18.996094 40.179688 16.8125 37.484375 16.8125 C 34.789062 16.8125 32.605469 18.996094 32.605469 21.691406 C 32.605469 21.714844 32.605469 21.738281 32.605469 21.757812 C 32.082031 21.566406 31.511719 21.460938 30.917969 21.460938 Z M 30.917969 21.460938 " fill-opacity="1" fill-rule="evenodd"/></svg>