<svg xmlns="http://www.w3.org/2000/svg" xmlns:xlink="http://www.w3.org/1999/xlink" width="41" zoomAndPan="magnify" viewBox="0 0 30.75 21.75" height="29" preserveAspectRatio="xMidYMid meet" version="1.0"><defs><clipPath id="885cb94718"><path d="M 0.0507812 0 L 30.453125 0 L 30.453125 21.503906 L 0.0507812 21.503906 Z M 0.0507812 0 " clip-rule="nonzero"/></clipPath><clipPath id="dc4e19ba74"><path d="M 25.84375 0.28125 L 30.378906 0.28125 L 30.378906 21.210938 L 25.84375 21.210938 Z M 25.84375 0.28125 " clip-rule="nonzero"/></clipPath><clipPath id="3ea0cce20e"><path d="M 0.484375 0.28125 L 4.984375 0.28125 L 4.984375 21.210938 L 0.484375 21.210938 Z M 0.484375 0.28125 " clip-rule="nonzero"/></clipPath></defs><g clip-path="url(#885cb94718)"><path fill="#ffffff" d="M 0.0507812 0 L 30.699219 0 L 30.699219 28.40625 L 0.0507812 28.40625 Z M 0.0507812 0 " fill-opacity="1" fill-rule="nonzero"/><path fill="#ffffff" d="M 0.0507812 0 L 30.699219 0 L 30.699219 21.675781 L 0.0507812 21.675781 Z M 0.0507812 0 " fill-opacity="1" fill-rule="nonzero"/></g><path fill="#ffffff" d="M 20.050781 15.589844 C 19.980469 15.589844 19.910156 15.5625 19.855469 15.507812 C 19.746094 15.402344 19.746094 15.226562 19.855469 15.121094 C 21.039062 13.953125 21.6875 12.398438 21.6875 10.746094 C 21.6875 9.097656 21.039062 7.542969 19.855469 6.375 C 19.746094 6.269531 19.746094 6.09375 19.855469 5.988281 C 19.964844 5.878906 20.140625 5.878906 20.25 5.988281 C 21.535156 7.257812 22.246094 8.949219 22.246094 10.746094 C 22.246094 12.546875 21.535156 14.238281 20.25 15.507812 C 20.195312 15.5625 20.125 15.589844 20.050781 15.589844 " fill-opacity="1" fill-rule="nonzero"/><path fill="#ffffff" d="M 10.808594 15.589844 C 10.738281 15.589844 10.664062 15.5625 10.613281 15.507812 C 7.953125 12.882812 7.953125 8.613281 10.613281 5.988281 C 10.71875 5.878906 10.894531 5.878906 11.003906 5.988281 C 11.113281 6.09375 11.113281 6.269531 11.003906 6.375 C 8.566406 8.785156 8.566406 12.707031 11.003906 15.121094 C 11.113281 15.226562 11.113281 15.402344 11.003906 15.507812 C 10.949219 15.5625 10.878906 15.589844 10.808594 15.589844 " fill-opacity="1" fill-rule="nonzero"/><path fill="#ffffff" d="M 22.019531 17.464844 C 21.964844 17.464844 21.914062 17.445312 21.871094 17.402344 C 21.789062 17.324219 21.789062 17.191406 21.871094 17.113281 C 25.425781 13.601562 25.425781 7.894531 21.871094 4.382812 C 21.789062 4.304688 21.789062 4.171875 21.871094 4.09375 C 21.953125 4.011719 22.085938 4.011719 22.167969 4.09375 C 25.882812 7.761719 25.882812 13.734375 22.167969 17.402344 C 22.125 17.445312 22.074219 17.464844 22.019531 17.464844 " fill-opacity="1" fill-rule="nonzero"/><path fill="#ffffff" d="M 8.839844 17.464844 C 8.785156 17.464844 8.734375 17.445312 8.691406 17.402344 C 4.976562 13.734375 4.976562 7.761719 8.691406 4.09375 C 8.773438 4.011719 8.90625 4.011719 8.988281 4.09375 C 9.070312 4.171875 9.070312 4.304688 8.988281 4.382812 C 5.4375 7.894531 5.4375 13.601562 8.988281 17.113281 C 9.070312 17.191406 9.070312 17.324219 8.988281 17.402344 C 8.949219 17.445312 8.894531 17.464844 8.839844 17.464844 " fill-opacity="1" fill-rule="nonzero"/><path fill="#ffffff" d="M 23.988281 19.339844 C 23.953125 19.339844 23.917969 19.324219 23.890625 19.296875 C 23.835938 19.246094 23.835938 19.15625 23.890625 19.105469 C 28.554688 14.496094 28.554688 7 23.890625 2.390625 C 23.835938 2.339844 23.835938 2.25 23.890625 2.199219 C 23.945312 2.144531 24.03125 2.144531 24.085938 2.199219 C 26.398438 4.480469 27.671875 7.519531 27.671875 10.746094 C 27.671875 13.976562 26.398438 17.015625 24.085938 19.296875 C 24.058594 19.324219 24.023438 19.339844 23.988281 19.339844 " fill-opacity="1" fill-rule="nonzero"/><path fill="#ffffff" d="M 6.871094 19.339844 C 6.835938 19.339844 6.800781 19.324219 6.773438 19.296875 C 2 14.582031 2 6.914062 6.773438 2.199219 C 6.828125 2.144531 6.917969 2.144531 6.972656 2.199219 C 7.027344 2.25 7.027344 2.339844 6.972656 2.390625 C 2.308594 7 2.308594 14.496094 6.972656 19.105469 C 7.027344 19.15625 7.027344 19.246094 6.972656 19.296875 C 6.945312 19.324219 6.910156 19.339844 6.871094 19.339844 " fill-opacity="1" fill-rule="nonzero"/><g clip-path="url(#dc4e19ba74)"><path fill="#ffffff" d="M 25.957031 21.214844 C 25.9375 21.214844 25.917969 21.207031 25.90625 21.191406 C 25.878906 21.167969 25.878906 21.121094 25.90625 21.097656 C 28.703125 18.332031 30.246094 14.65625 30.246094 10.746094 C 30.246094 6.839844 28.703125 3.164062 25.90625 0.398438 C 25.878906 0.371094 25.878906 0.328125 25.90625 0.300781 C 25.933594 0.277344 25.976562 0.277344 26.003906 0.300781 C 31.835938 6.0625 31.835938 15.433594 26.003906 21.191406 C 25.992188 21.207031 25.972656 21.214844 25.957031 21.214844 " fill-opacity="1" fill-rule="nonzero"/></g><g clip-path="url(#3ea0cce20e)"><path fill="#ffffff" d="M 4.90625 21.214844 C 4.886719 21.214844 4.871094 21.207031 4.855469 21.191406 C -0.976562 15.433594 -0.976562 6.0625 4.855469 0.300781 C 4.882812 0.277344 4.925781 0.277344 4.953125 0.300781 C 4.980469 0.328125 4.980469 0.371094 4.953125 0.398438 C 2.15625 3.164062 0.613281 6.839844 0.613281 10.746094 C 0.613281 14.65625 2.15625 18.332031 4.953125 21.097656 C 4.980469 21.121094 4.980469 21.167969 4.953125 21.191406 C 4.941406 21.207031 4.921875 21.214844 4.90625 21.214844 " fill-opacity="1" fill-rule="nonzero"/></g><path fill="#38b6ff" d="M 20.515625 5.515625 C 20.859375 5.859375 21.167969 6.234375 21.4375 6.636719 C 21.707031 7.039062 21.9375 7.46875 22.121094 7.917969 C 22.308594 8.363281 22.449219 8.828125 22.542969 9.304688 C 22.636719 9.78125 22.683594 10.261719 22.683594 10.746094 C 22.683594 11.234375 22.636719 11.714844 22.542969 12.191406 C 22.449219 12.667969 22.308594 13.132812 22.121094 13.578125 C 21.9375 14.027344 21.707031 14.457031 21.4375 14.859375 C 21.167969 15.261719 20.859375 15.636719 20.519531 15.980469 C 20.175781 16.324219 19.800781 16.632812 19.394531 16.902344 C 18.992188 17.171875 18.566406 17.398438 18.117188 17.585938 C 17.667969 17.769531 17.207031 17.910156 16.730469 18.007812 C 16.253906 18.101562 15.769531 18.148438 15.285156 18.148438 C 14.800781 18.148438 14.316406 18.101562 13.839844 18.007812 C 13.363281 17.910156 12.902344 17.769531 12.453125 17.585938 C 12.003906 17.398438 11.578125 17.171875 11.171875 16.902344 C 10.769531 16.632812 10.394531 16.324219 10.050781 15.980469 C 9.707031 15.636719 9.402344 15.261719 9.132812 14.859375 C 8.863281 14.457031 8.632812 14.027344 8.449219 13.582031 C 8.261719 13.132812 8.121094 12.667969 8.027344 12.191406 C 7.933594 11.714844 7.882812 11.234375 7.882812 10.75 C 7.882812 10.261719 7.933594 9.78125 8.027344 9.304688 C 8.121094 8.828125 8.261719 8.367188 8.449219 7.917969 C 8.632812 7.46875 8.863281 7.039062 9.132812 6.636719 C 9.402344 6.234375 9.707031 5.859375 10.050781 5.515625 C 10.394531 5.171875 10.769531 4.863281 11.171875 4.59375 C 11.578125 4.324219 12.003906 4.097656 12.453125 3.910156 C 12.902344 3.726562 13.363281 3.585938 13.839844 3.488281 C 14.316406 3.394531 14.796875 3.347656 15.285156 3.347656 C 15.769531 3.347656 16.25 3.394531 16.726562 3.488281 C 17.203125 3.585938 17.667969 3.726562 18.117188 3.910156 C 18.566406 4.097656 18.992188 4.324219 19.394531 4.59375 C 19.800781 4.863281 20.175781 5.171875 20.515625 5.515625 Z M 20.515625 5.515625 " fill-opacity="1" fill-rule="nonzero"/><path fill="#ffffff" d="M 16.214844 10.816406 C 16.25 10.785156 16.257812 10.734375 16.226562 10.695312 C 16.199219 10.660156 16.144531 10.652344 16.109375 10.683594 L 15.671875 11.03125 L 15.285156 11.339844 L 14.898438 11.03125 L 14.460938 10.683594 C 14.421875 10.652344 14.371094 10.660156 14.339844 10.695312 C 14.3125 10.734375 14.316406 10.785156 14.355469 10.816406 L 14.792969 11.164062 L 15.226562 11.507812 C 15.257812 11.535156 15.304688 11.539062 15.335938 11.511719 L 15.777344 11.164062 Z M 16.214844 10.816406 " fill-opacity="1" fill-rule="nonzero"/><path fill="#ffffff" d="M 17.195312 13.058594 C 17.195312 13.179688 17.101562 13.277344 16.980469 13.277344 C 16.863281 13.277344 16.765625 13.179688 16.765625 13.058594 C 16.765625 12.941406 16.863281 12.84375 16.980469 12.84375 C 17.101562 12.84375 17.195312 12.941406 17.195312 13.058594 Z M 16.980469 12.296875 C 16.863281 12.296875 16.765625 12.203125 16.765625 12.082031 C 16.765625 11.964844 16.863281 11.867188 16.980469 11.867188 C 17.101562 11.867188 17.199219 11.964844 17.199219 12.082031 C 17.195312 12.203125 17.101562 12.296875 16.980469 12.296875 Z M 17.53125 11.445312 L 15.421875 11.445312 L 15.335938 11.511719 C 15.304688 11.539062 15.257812 11.535156 15.226562 11.507812 L 15.148438 11.445312 L 13.039062 11.445312 L 13.039062 14.542969 L 17.53125 14.542969 Z M 16.429688 11.867188 L 16.429688 14.125 L 13.511719 14.125 L 13.511719 11.867188 Z M 16.429688 11.867188 " fill-opacity="1" fill-rule="evenodd"/><path fill="#ffffff" d="M 12.566406 8.875 C 11.453125 8.875 10.546875 9.777344 10.546875 10.894531 C 10.546875 12.007812 11.453125 12.914062 12.566406 12.914062 L 12.871094 12.914062 L 12.871094 11.277344 L 14.664062 11.277344 L 14.25 10.949219 C 14.140625 10.859375 14.121094 10.699219 14.210938 10.589844 C 14.296875 10.480469 14.457031 10.464844 14.566406 10.550781 L 15.285156 11.121094 L 16.003906 10.550781 C 16.113281 10.464844 16.273438 10.480469 16.359375 10.589844 C 16.449219 10.699219 16.429688 10.859375 16.320312 10.949219 L 15.90625 11.277344 L 17.699219 11.277344 L 17.699219 12.914062 L 18.003906 12.914062 C 19.117188 12.914062 20.019531 12.007812 20.019531 10.894531 C 20.019531 9.777344 19.117188 8.875 18.003906 8.875 C 17.757812 8.875 17.519531 8.917969 17.304688 9 C 17.304688 8.988281 17.304688 8.980469 17.304688 8.972656 C 17.304688 7.855469 16.398438 6.953125 15.285156 6.953125 C 14.171875 6.953125 13.265625 7.855469 13.265625 8.972656 C 13.265625 8.980469 13.265625 8.988281 13.265625 9 C 13.046875 8.917969 12.8125 8.875 12.566406 8.875 Z M 12.566406 8.875 " fill-opacity="1" fill-rule="evenodd"/></svg>
