<svg xmlns="http://www.w3.org/2000/svg" xmlns:xlink="http://www.w3.org/1999/xlink" width="80" zoomAndPan="magnify" viewBox="0 0 60 42.75" height="57" preserveAspectRatio="xMidYMid meet" version="1.0"><defs><clipPath id="21c0482143"><path d="M 51 0.207031 L 59.824219 0.207031 L 59.824219 41.628906 L 51 41.628906 Z M 51 0.207031 " clip-rule="nonzero"/></clipPath><clipPath id="82b89bfa7f"><path d="M 0.75 0.207031 L 9.664062 0.207031 L 9.664062 41.628906 L 0.75 41.628906 Z M 0.75 0.207031 " clip-rule="nonzero"/></clipPath></defs><path fill="#ffffff" d="M 39.480469 30.5 C 39.339844 30.5 39.199219 30.445312 39.09375 30.339844 C 38.875 30.128906 38.875 29.785156 39.09375 29.570312 C 41.429688 27.261719 42.71875 24.1875 42.71875 20.921875 C 42.71875 17.652344 41.429688 14.578125 39.09375 12.269531 C 38.875 12.054688 38.875 11.710938 39.09375 11.5 C 39.308594 11.285156 39.65625 11.285156 39.871094 11.5 C 42.417969 14.015625 43.820312 17.359375 43.820312 20.921875 C 43.820312 24.476562 42.417969 27.824219 39.871094 30.339844 C 39.761719 30.445312 39.621094 30.5 39.480469 30.5 " fill-opacity="1" fill-rule="nonzero"/><path fill="#ffffff" d="M 21.1875 30.5 C 21.046875 30.5 20.90625 30.445312 20.796875 30.339844 C 15.539062 25.144531 15.539062 16.695312 20.796875 11.5 C 21.011719 11.285156 21.359375 11.285156 21.574219 11.5 C 21.789062 11.710938 21.789062 12.054688 21.574219 12.269531 C 16.746094 17.039062 16.746094 24.800781 21.574219 29.570312 C 21.789062 29.785156 21.789062 30.128906 21.574219 30.339844 C 21.46875 30.445312 21.328125 30.5 21.1875 30.5 " fill-opacity="1" fill-rule="nonzero"/><path fill="#ffffff" d="M 43.375 34.210938 C 43.269531 34.210938 43.164062 34.171875 43.082031 34.089844 C 42.921875 33.933594 42.921875 33.671875 43.082031 33.515625 C 50.113281 26.570312 50.113281 15.269531 43.082031 8.324219 C 42.921875 8.167969 42.921875 7.90625 43.082031 7.75 C 43.246094 7.589844 43.507812 7.589844 43.667969 7.75 C 51.019531 15.011719 51.019531 26.828125 43.667969 34.089844 C 43.585938 34.171875 43.480469 34.210938 43.375 34.210938 " fill-opacity="1" fill-rule="nonzero"/><path fill="#ffffff" d="M 17.292969 34.210938 C 17.1875 34.210938 17.082031 34.171875 17 34.089844 C 9.648438 26.828125 9.648438 15.011719 17 7.75 C 17.160156 7.589844 17.421875 7.589844 17.582031 7.75 C 17.746094 7.90625 17.746094 8.167969 17.582031 8.324219 C 10.554688 15.269531 10.554688 26.570312 17.582031 33.515625 C 17.746094 33.671875 17.746094 33.933594 17.582031 34.089844 C 17.503906 34.171875 17.398438 34.210938 17.292969 34.210938 " fill-opacity="1" fill-rule="nonzero"/><path fill="#ffffff" d="M 47.269531 37.921875 C 47.199219 37.921875 47.128906 37.894531 47.074219 37.839844 C 46.96875 37.734375 46.96875 37.5625 47.074219 37.457031 C 56.304688 28.339844 56.304688 13.5 47.074219 4.382812 C 46.96875 4.277344 46.96875 4.105469 47.074219 3.996094 C 47.183594 3.890625 47.355469 3.890625 47.464844 3.996094 C 52.039062 8.519531 54.558594 14.527344 54.558594 20.921875 C 54.558594 27.3125 52.039062 33.320312 47.464844 37.839844 C 47.410156 37.894531 47.339844 37.921875 47.269531 37.921875 " fill-opacity="1" fill-rule="nonzero"/><path fill="#ffffff" d="M 13.398438 37.921875 C 13.328125 37.921875 13.257812 37.894531 13.203125 37.839844 C 3.757812 28.511719 3.757812 13.328125 13.203125 3.996094 C 13.3125 3.890625 13.484375 3.890625 13.59375 3.996094 C 13.699219 4.105469 13.699219 4.277344 13.59375 4.382812 C 4.363281 13.5 4.363281 28.339844 13.59375 37.457031 C 13.699219 37.5625 13.699219 37.734375 13.59375 37.839844 C 13.539062 37.894531 13.46875 37.921875 13.398438 37.921875 " fill-opacity="1" fill-rule="nonzero"/><g clip-path="url(#21c0482143)"><path fill="#ffffff" d="M 51.164062 41.632812 C 51.128906 41.632812 51.09375 41.617188 51.066406 41.59375 C 51.011719 41.539062 51.011719 41.453125 51.066406 41.398438 C 56.605469 35.929688 59.65625 28.65625 59.65625 20.921875 C 59.65625 13.183594 56.605469 5.910156 51.066406 0.441406 C 51.011719 0.386719 51.011719 0.300781 51.066406 0.246094 C 51.121094 0.195312 51.207031 0.195312 51.261719 0.246094 C 62.800781 11.644531 62.800781 30.195312 51.261719 41.59375 C 51.234375 41.617188 51.199219 41.632812 51.164062 41.632812 " fill-opacity="1" fill-rule="nonzero"/></g><g clip-path="url(#82b89bfa7f)"><path fill="#ffffff" d="M 9.503906 41.632812 C 9.46875 41.632812 9.433594 41.617188 9.40625 41.59375 C -2.132812 30.195312 -2.132812 11.644531 9.40625 0.246094 C 9.460938 0.195312 9.546875 0.195312 9.601562 0.246094 C 9.65625 0.300781 9.65625 0.386719 9.601562 0.441406 C 4.0625 5.910156 1.011719 13.183594 1.011719 20.921875 C 1.011719 28.65625 4.0625 35.929688 9.601562 41.398438 C 9.65625 41.453125 9.65625 41.539062 9.601562 41.59375 C 9.574219 41.617188 9.539062 41.632812 9.503906 41.632812 " fill-opacity="1" fill-rule="nonzero"/></g><path fill="#38b6ff" d="M 40.402344 10.5625 C 41.082031 11.246094 41.6875 11.984375 42.222656 12.785156 C 42.757812 13.582031 43.207031 14.425781 43.578125 15.316406 C 43.945312 16.203125 44.222656 17.121094 44.410156 18.0625 C 44.597656 19.007812 44.691406 19.957031 44.691406 20.921875 C 44.691406 21.882812 44.597656 22.835938 44.410156 23.777344 C 44.222656 24.71875 43.945312 25.636719 43.578125 26.523438 C 43.210938 27.414062 42.757812 28.257812 42.222656 29.058594 C 41.691406 29.855469 41.082031 30.597656 40.402344 31.277344 C 39.722656 31.957031 38.984375 32.5625 38.183594 33.097656 C 37.382812 33.632812 36.539062 34.082031 35.652344 34.453125 C 34.761719 34.820312 33.847656 35.097656 32.902344 35.285156 C 31.960938 35.472656 31.007812 35.566406 30.046875 35.566406 C 29.085938 35.566406 28.132812 35.472656 27.1875 35.285156 C 26.246094 35.097656 25.332031 34.820312 24.441406 34.453125 C 23.554688 34.082031 22.710938 33.632812 21.910156 33.097656 C 21.109375 32.5625 20.371094 31.957031 19.691406 31.277344 C 19.011719 30.597656 18.402344 29.855469 17.867188 29.058594 C 17.335938 28.257812 16.882812 27.414062 16.515625 26.527344 C 16.148438 25.636719 15.871094 24.722656 15.683594 23.777344 C 15.496094 22.835938 15.402344 21.882812 15.402344 20.921875 C 15.402344 19.960938 15.496094 19.007812 15.683594 18.0625 C 15.871094 17.121094 16.148438 16.203125 16.515625 15.316406 C 16.882812 14.425781 17.335938 13.582031 17.867188 12.785156 C 18.402344 11.984375 19.011719 11.246094 19.691406 10.566406 C 20.371094 9.882812 21.109375 9.277344 21.910156 8.742188 C 22.707031 8.210938 23.554688 7.757812 24.441406 7.390625 C 25.328125 7.023438 26.246094 6.742188 27.1875 6.554688 C 28.132812 6.367188 29.085938 6.273438 30.046875 6.273438 C 31.007812 6.273438 31.960938 6.367188 32.902344 6.554688 C 33.847656 6.742188 34.761719 7.023438 35.652344 7.390625 C 36.539062 7.757812 37.382812 8.207031 38.183594 8.742188 C 38.980469 9.277344 39.722656 9.882812 40.402344 10.5625 Z M 40.402344 10.5625 " fill-opacity="1" fill-rule="nonzero"/><path fill="#ffffff" d="M 31.886719 21.054688 C 31.957031 20.996094 31.972656 20.890625 31.914062 20.820312 C 31.855469 20.746094 31.75 20.734375 31.679688 20.792969 L 30.808594 21.480469 L 30.046875 22.089844 L 29.28125 21.480469 L 28.414062 20.792969 C 28.339844 20.734375 28.234375 20.746094 28.179688 20.820312 C 28.121094 20.890625 28.132812 20.996094 28.207031 21.054688 L 29.074219 21.742188 L 29.933594 22.425781 C 29.992188 22.480469 30.085938 22.484375 30.148438 22.433594 L 31.019531 21.742188 Z M 31.886719 21.054688 " fill-opacity="1" fill-rule="nonzero"/><path fill="#ffffff" d="M 33.832031 25.496094 C 33.832031 25.730469 33.640625 25.921875 33.402344 25.921875 C 33.167969 25.921875 32.976562 25.730469 32.976562 25.496094 C 32.976562 25.257812 33.167969 25.066406 33.402344 25.066406 C 33.640625 25.066406 33.832031 25.257812 33.832031 25.496094 Z M 33.402344 23.988281 C 33.167969 23.988281 32.976562 23.796875 32.976562 23.5625 C 32.976562 23.324219 33.167969 23.132812 33.402344 23.132812 C 33.640625 23.132812 33.832031 23.324219 33.832031 23.5625 C 33.832031 23.796875 33.640625 23.988281 33.402344 23.988281 Z M 34.492188 22.300781 L 30.316406 22.300781 L 30.148438 22.433594 C 30.085938 22.484375 29.992188 22.480469 29.933594 22.425781 L 29.777344 22.300781 L 25.601562 22.300781 L 25.601562 28.429688 L 34.492188 28.429688 Z M 32.316406 23.132812 L 32.316406 27.601562 L 26.539062 27.601562 L 26.539062 23.132812 Z M 32.316406 23.132812 " fill-opacity="1" fill-rule="evenodd"/><path fill="#ffffff" d="M 24.667969 17.214844 C 22.460938 17.214844 20.671875 19.003906 20.671875 21.210938 C 20.671875 23.414062 22.460938 25.203125 24.667969 25.203125 L 25.265625 25.203125 L 25.265625 21.96875 L 28.820312 21.96875 L 27.996094 21.316406 C 27.78125 21.144531 27.746094 20.828125 27.917969 20.609375 C 28.089844 20.394531 28.40625 20.359375 28.621094 20.53125 L 30.046875 21.660156 L 31.472656 20.53125 C 31.6875 20.359375 32.003906 20.394531 32.175781 20.609375 C 32.347656 20.828125 32.3125 21.144531 32.09375 21.316406 L 31.273438 21.96875 L 34.828125 21.96875 L 34.828125 25.203125 L 35.421875 25.203125 C 37.628906 25.203125 39.417969 23.414062 39.417969 21.210938 C 39.417969 19.003906 37.628906 17.214844 35.421875 17.214844 C 34.9375 17.214844 34.472656 17.300781 34.042969 17.457031 C 34.042969 17.441406 34.042969 17.421875 34.042969 17.40625 C 34.042969 15.199219 32.253906 13.410156 30.046875 13.410156 C 27.839844 13.410156 26.050781 15.199219 26.050781 17.40625 C 26.050781 17.421875 26.050781 17.441406 26.050781 17.457031 C 25.621094 17.300781 25.15625 17.214844 24.667969 17.214844 Z M 24.667969 17.214844 " fill-opacity="1" fill-rule="evenodd"/></svg>