<svg xmlns="http://www.w3.org/2000/svg" xmlns:xlink="http://www.w3.org/1999/xlink" width="428" height="244.5" viewBox="0 0 428 244.5">
  <defs>
    <linearGradient id="linear-gradient" x1="-0.115" y1="-0.12" x2="0.675" y2="1.31" gradientUnits="objectBoundingBox">
      <stop offset="0" stop-color="#0d0d0d"/>
      <stop offset="1" stop-color="#3a3a3a"/>
    </linearGradient>
    <clipPath id="clip-path">
      <path id="Path_2816" data-name="Path 2816" d="M160.162,480.917s.01.006.016.006a2.865,2.865,0,0,1,1.645,2.593V493.4h0a4.416,4.416,0,0,0,4.414,4.421h5.231V486.587a2.862,2.862,0,0,0-1.994-2.726c-.277-.094-9.568-3.274-9.568-3.274-.069.2.169.293.251.33" transform="translate(-159.898 -480.587)"/>
    </clipPath>
    <linearGradient id="linear-gradient-2" x1="-4.7" y1="5.402" x2="-4.668" y2="5.402" gradientUnits="objectBoundingBox">
      <stop offset="0" stop-color="#e6e7e8"/>
      <stop offset="1" stop-color="#9d9fa2"/>
    </linearGradient>
    <clipPath id="clip-path-2">
      <path id="Path_2818" data-name="Path 2818" d="M139.307,473.787s0,0,0,0a2.867,2.867,0,0,1,1.656,2.593v14.39a22.641,22.641,0,0,0,19.841,22.475H192.26v0c-.557-.18-1.116-.385-1.661-.611a21.977,21.977,0,0,1-6.944-4.556,21.323,21.323,0,0,1-1.693-1.835,20.342,20.342,0,0,1-4.547-9.986,21.459,21.459,0,0,1-.244-2.4h-.015l-.006-.882v-4.446a2.855,2.855,0,0,0-1.995-2.721c-.275-.1-4.839-1.66-4.839-1.66-.07.189.172.291.245.331,0,0,.014,0,.021,0a2.856,2.856,0,0,1,1.642,2.594v13.544h-8.993c-5.1,0-9.6-1.65-9.6-9.971V480.487a2.855,2.855,0,0,0-2-2.723l-12.585-4.306c-.064.193.173.291.264.329" transform="translate(-139.033 -473.458)"/>
    </clipPath>
    <linearGradient id="linear-gradient-3" x1="-1.134" y1="1.968" x2="-1.124" y2="1.968" gradientUnits="objectBoundingBox">
      <stop offset="0" stop-color="#e6e7e8"/>
      <stop offset="0.421" stop-color="#c2c4c6"/>
      <stop offset="0.795" stop-color="#a7a9ab"/>
      <stop offset="1" stop-color="#9d9fa2"/>
    </linearGradient>
    <clipPath id="clip-path-3">
      <path id="Path_2820" data-name="Path 2820" d="M180.389,451.157c.005,0,.005.006.009.006a3.436,3.436,0,0,1,1.647,2.954v36.648h0c0,10.432,8.162,19,18.31,20.282h4.17a28,28,0,0,1-3.018-.407,20.429,20.429,0,0,1-15.871-19.887V454.988a2.874,2.874,0,0,0-1.651-2.592c-.005,0-.009-.006-.016-.006-.081-.035-.312-.135-.245-.328l-3.589-1.227c-.07.186.169.285.249.321" transform="translate(-180.127 -450.836)"/>
    </clipPath>
    <linearGradient id="linear-gradient-4" x1="-2.703" y1="2.527" x2="-2.686" y2="2.527" gradientUnits="objectBoundingBox">
      <stop offset="0" stop-color="#848689"/>
      <stop offset="0.165" stop-color="#848689"/>
      <stop offset="0.505" stop-color="#cdcfd0"/>
      <stop offset="0.898" stop-color="#e6e7e8"/>
      <stop offset="0.919" stop-color="#dbdcde"/>
      <stop offset="0.96" stop-color="#bec0c2"/>
      <stop offset="1" stop-color="#9d9fa2"/>
    </linearGradient>
    <clipPath id="clip-path-4">
      <path id="Path_2822" data-name="Path 2822" d="M184.36,452.522c.007,0,.011.006.016.006a2.875,2.875,0,0,1,1.651,2.592v35.764a20.464,20.464,0,0,0,17.882,20.294h2.008a21.149,21.149,0,0,1-16.8-20.694,21.54,21.54,0,0,1,.45-4.383,22.109,22.109,0,0,1,9.1-14.858v-12.02a2.859,2.859,0,0,0-2-2.731c-.275-.09-12.556-4.3-12.556-4.3-.068.192.163.292.245.328" transform="translate(-184.103 -452.194)"/>
    </clipPath>
    <linearGradient id="linear-gradient-5" x1="-2.948" y1="2.592" x2="-2.93" y2="2.592" gradientUnits="objectBoundingBox">
      <stop offset="0" stop-color="#bcbec0"/>
      <stop offset="0.604" stop-color="#cdcfd0"/>
      <stop offset="0.696" stop-color="#c8cacc"/>
      <stop offset="0.818" stop-color="#babcbe"/>
      <stop offset="0.958" stop-color="#a3a5a8"/>
      <stop offset="0.992" stop-color="#9d9fa2"/>
      <stop offset="1" stop-color="#9d9fa2"/>
    </linearGradient>
    <clipPath id="clip-path-5">
      <path id="Path_2824" data-name="Path 2824" d="M156.976,479.813c0,.007,0,.007.008.014a3.044,3.044,0,0,1,1.65,2.719V493.3a4.419,4.419,0,0,0,4.415,4.421h2.881a4.416,4.416,0,0,1-4.414-4.421h0V483.41a2.865,2.865,0,0,0-1.645-2.593c-.006,0-.013-.006-.016-.006-.082-.036-.32-.133-.251-.328l-2.881-.99c-.064.19.167.286.257.322" transform="translate(-156.708 -479.491)"/>
    </clipPath>
    <linearGradient id="linear-gradient-6" x1="-7.442" y1="6.711" x2="-7.393" y2="6.711" gradientUnits="objectBoundingBox">
      <stop offset="0" stop-color="#848689"/>
      <stop offset="0.013" stop-color="#898b8e"/>
      <stop offset="0.092" stop-color="#a5a7aa"/>
      <stop offset="0.166" stop-color="#bbbdbf"/>
      <stop offset="0.231" stop-color="#c8cacc"/>
      <stop offset="0.282" stop-color="#cdcfd0"/>
      <stop offset="0.821" stop-color="#d5d7d8"/>
      <stop offset="0.868" stop-color="#caccce"/>
      <stop offset="0.955" stop-color="#adafb2"/>
      <stop offset="1" stop-color="#9d9fa2"/>
    </linearGradient>
    <clipPath id="clip-path-6">
      <path id="Path_2826" data-name="Path 2826" d="M135.322,472.421c0,.006,0,.006.01.006a3.463,3.463,0,0,1,1.651,2.974v15.237a22.639,22.639,0,0,0,19.835,22.475h3.6v0a22.636,22.636,0,0,1-19.837-22.474v-.006h0V476.25a2.867,2.867,0,0,0-1.656-2.593s0,0,0,0c-.09-.039-.311-.131-.264-.32-1.476-.509-3.59-1.246-3.59-1.246-.069.193.166.294.255.332" transform="translate(-135.054 -472.089)"/>
    </clipPath>
    <linearGradient id="linear-gradient-7" x1="-2.43" y1="3.055" x2="-2.41" y2="3.055" gradientUnits="objectBoundingBox">
      <stop offset="0" stop-color="#848689"/>
      <stop offset="0.009" stop-color="#898b8e"/>
      <stop offset="0.062" stop-color="#a5a7aa"/>
      <stop offset="0.111" stop-color="#bbbdbf"/>
      <stop offset="0.155" stop-color="#c8cacc"/>
      <stop offset="0.189" stop-color="#cdcfd0"/>
      <stop offset="0.446" stop-color="#d5d7d8"/>
      <stop offset="0.886" stop-color="#e6e7e8"/>
      <stop offset="0.904" stop-color="#dbdcde"/>
      <stop offset="0.939" stop-color="#bec0c2"/>
      <stop offset="0.987" stop-color="#919396"/>
      <stop offset="1" stop-color="#848689"/>
    </linearGradient>
    <clipPath id="clip-path-7">
      <path id="Path_2828" data-name="Path 2828" d="M203.607,491.964a8.409,8.409,0,1,1,8.412,8.408,8.405,8.405,0,0,1-8.412-8.408m-6.72-14.69a19.816,19.816,0,0,0-2.116,19.732c-.095-.226-.184-.438-.268-.665,5.787,4.587,13.168,7.881,21.174,7.342a31.087,31.087,0,0,0,8.816-1.975c-.182-.361-.362-.727-.528-1.1a.017.017,0,0,1-.005-.013c-.04-.093-.081-.181-.121-.269,0-.006,0-.006,0-.006-.119-.279-.234-.575-.342-.858v-.006c-.037-.093-.07-.177-.1-.273-.007-.014-.014-.02-.018-.029-.027-.086-.061-.175-.087-.255a.067.067,0,0,1-.007-.038c-.107-.288-.193-.572-.281-.866a.061.061,0,0,0-.01-.029c-.024-.086-.048-.17-.072-.258a.4.4,0,0,0-.014-.052c-.022-.087-.045-.161-.06-.242,0-.016-.018-.038-.022-.052-.016-.088-.044-.179-.063-.266,0-.013,0-.018-.011-.02-.046-.2-.094-.395-.134-.6a.157.157,0,0,1-.009-.053,1.481,1.481,0,0,1-.047-.239c-.007-.02-.011-.049-.022-.074-.013-.073-.023-.143-.04-.224a.414.414,0,0,1-.009-.075c-.023-.08-.034-.157-.051-.233,0-.023-.006-.042-.006-.065-.036-.194-.063-.4-.09-.6-.006-.019-.007-.048-.016-.074a1.554,1.554,0,0,0-.025-.217c0-.032-.006-.064-.006-.095-.012-.067-.019-.137-.026-.207a.907.907,0,0,1,0-.1c-.013-.068-.016-.147-.029-.218,0-.024,0-.054,0-.078-.012-.1-.016-.207-.031-.308s-.01-.2-.022-.3v-.092c0-.071-.01-.138-.01-.207a.642.642,0,0,1-.006-.108c0-.067-.01-.136-.01-.2a.659.659,0,0,1-.006-.112v-.207c0-.033,0-.064,0-.1v-.556a21.223,21.223,0,0,1,5.456-14.079,21.146,21.146,0,0,0-30.711-.395" transform="translate(-193.085 -470.862)"/>
    </clipPath>
    <linearGradient id="linear-gradient-8" x1="-2.352" y1="2.628" x2="-2.338" y2="2.628" gradientUnits="objectBoundingBox">
      <stop offset="0" stop-color="#e6e7e8"/>
      <stop offset="0.308" stop-color="#cdcfd0"/>
      <stop offset="0.496" stop-color="#bcbec0"/>
      <stop offset="0.877" stop-color="#9d9fa2"/>
      <stop offset="1" stop-color="#9d9fa2"/>
    </linearGradient>
    <clipPath id="clip-path-8">
      <path id="Path_2830" data-name="Path 2830" d="M225.274,492.682a21.158,21.158,0,0,0,18.494,20.987h5.319a21.174,21.174,0,0,0,17.554-14.756,18.476,18.476,0,0,1-4.258,6.579c-7.681,7.683-20.5,7.321-28.638-.815-7.522-7.52-8.471-19.124-2.482-26.892a21.186,21.186,0,0,0-5.988,14.9" transform="translate(-225.274 -477.784)"/>
    </clipPath>
    <linearGradient id="linear-gradient-9" x1="-4.916" y1="4.254" x2="-4.894" y2="4.254" gradientUnits="objectBoundingBox">
      <stop offset="0" stop-color="#925222"/>
      <stop offset="0.119" stop-color="#925222"/>
      <stop offset="0.444" stop-color="#f7931e"/>
      <stop offset="1" stop-color="#e4bd80"/>
    </linearGradient>
    <clipPath id="clip-path-9">
      <path id="Path_2832" data-name="Path 2832" d="M190.674,492.705a21.154,21.154,0,0,0,18.508,20.98h7.393c-10.48-1.088-18.866-7.5-22.038-15.988a19.816,19.816,0,0,1,2.116-19.732,21.1,21.1,0,0,0-5.979,14.739" transform="translate(-190.674 -477.966)"/>
    </clipPath>
    <linearGradient id="linear-gradient-10" x1="-2.503" y1="2.685" x2="-2.489" y2="2.685" gradientUnits="objectBoundingBox">
      <stop offset="0" stop-color="#9d9fa2"/>
      <stop offset="0.337" stop-color="#e6e7e8"/>
      <stop offset="0.467" stop-color="#d0d2d4"/>
      <stop offset="0.744" stop-color="#9a9c9e"/>
      <stop offset="0.855" stop-color="#848689"/>
      <stop offset="1" stop-color="#848689"/>
    </linearGradient>
    <clipPath id="clip-path-10">
      <path id="Path_2834" data-name="Path 2834" d="M194.924,499.754c.007.006.007.015.011.024,6.1,6.684,14.987,11.563,24.821,10.887a35.593,35.593,0,0,0,8.159-1.55,21.108,21.108,0,0,1-3.27-4.66,31.144,31.144,0,0,1-8.816,1.975c-8.006.54-15.386-2.756-21.174-7.343.084.227.173.44.268.665" transform="translate(-194.656 -499.089)"/>
    </clipPath>
    <linearGradient id="linear-gradient-11" x1="-4.242" y1="4.468" x2="-4.22" y2="4.468" gradientUnits="objectBoundingBox">
      <stop offset="0" stop-color="#e6bd71"/>
      <stop offset="0.707" stop-color="#e6bd71"/>
      <stop offset="1" stop-color="#f7941e"/>
    </linearGradient>
    <clipPath id="clip-path-11">
      <path id="Path_2835" data-name="Path 2835" d="M194.953,499.826c3.172,8.492,11.558,14.892,22.035,15.988h23.836a21.1,21.1,0,0,1-12.88-6.626,35.6,35.6,0,0,1-8.16,1.55c-9.834.675-18.722-4.2-24.82-10.888C194.96,499.841,194.96,499.831,194.953,499.826Z" transform="translate(-194.953 -499.826)"/>
    </clipPath>
    <linearGradient id="linear-gradient-12" x1="-3.837" y1="8.304" x2="-3.817" y2="8.304" gradientUnits="objectBoundingBox">
      <stop offset="0" stop-color="#e4bd80"/>
      <stop offset="0.001" stop-color="#e4bd80"/>
      <stop offset="0.419" stop-color="#f7931e"/>
      <stop offset="0.909" stop-color="#925222"/>
      <stop offset="1" stop-color="#925222"/>
    </linearGradient>
    <clipPath id="clip-aynTV-Public_radio">
      <rect width="428" height="244.5"/>
    </clipPath>
  </defs>
  <g id="aynTV-Public_radio" data-name="aynTV-Public radio" clip-path="url(#clip-aynTV-Public_radio)">
    <rect width="428" height="244.5" fill="url(#linear-gradient)"/>
    <g id="Group_1373" data-name="Group 1373" transform="translate(-0.264 -3.509)">
      <g id="Group_1369" data-name="Group 1369" transform="translate(-775.664 2705.742)">
        <g id="Group_1293" data-name="Group 1293" transform="translate(950.433 -2599.877)" clip-path="url(#clip-path)">
          <path id="Path_2815" data-name="Path 2815" d="M164.722,503.012l14.433-14.434-14.433-14.433-14.433,14.433Z" transform="translate(-158.963 -479.96)" fill="url(#linear-gradient-2)"/>
        </g>
        <g id="Group_1295" data-name="Group 1295" transform="translate(931.598 -2606.313)" clip-path="url(#clip-path-2)">
          <path id="Path_2817" data-name="Path 2817" d="M163.47,537.016,210,490.482,163.47,443.947l-46.534,46.535Z" transform="translate(-136.883 -470.586)" fill="url(#linear-gradient-3)"/>
        </g>
        <g id="Group_1297" data-name="Group 1297" transform="translate(968.694 -2626.733)" clip-path="url(#clip-path-3)">
          <path id="Path_2819" data-name="Path 2819" d="M201.262,516.5l16.691-62.293L180.079,444.06l-16.691,62.293Z" transform="translate(-178.498 -450.177)" fill="url(#linear-gradient-4)"/>
        </g>
        <g id="Group_1299" data-name="Group 1299" transform="translate(972.283 -2625.507)" clip-path="url(#clip-path-4)">
          <path id="Path_2821" data-name="Path 2821" d="M202.857,516.056l16.211-60.5-35.15-9.419-16.211,60.5Z" transform="translate(-182.508 -451.605)" fill="url(#linear-gradient-5)"/>
        </g>
        <g id="Group_1301" data-name="Group 1301" transform="translate(947.553 -2600.866)" clip-path="url(#clip-path-5)">
          <path id="Path_2823" data-name="Path 2823" d="M164.813,499.785l5.178-19.324-13.212-3.54L151.6,496.246Z" transform="translate(-156.211 -479.241)" fill="url(#linear-gradient-6)"/>
        </g>
        <g id="Group_1303" data-name="Group 1303" transform="translate(928.006 -2607.548)" clip-path="url(#clip-path-6)">
          <path id="Path_2825" data-name="Path 2825" d="M157.6,518.784l11.959-44.632-33.971-9.1-11.959,44.631Z" transform="translate(-133.942 -471.404)" fill="url(#linear-gradient-7)"/>
        </g>
        <g id="Group_1305" data-name="Group 1305" transform="translate(980.391 -2608.656)" clip-path="url(#clip-path-7)">
          <path id="Path_2827" data-name="Path 2827" d="M174.486,491.445l39.58,27.714,27.4-39.125-39.581-27.715Z" transform="translate(-191.275 -469.058)" fill="url(#linear-gradient-8)"/>
        </g>
        <g id="Group_1309" data-name="Group 1309" transform="translate(1009.448 -2602.407)" clip-path="url(#clip-path-8)">
          <rect id="Rectangle_895" data-name="Rectangle 895" width="41.367" height="35.885" fill="url(#linear-gradient-9)"/>
        </g>
        <g id="Group_1311" data-name="Group 1311" transform="translate(978.214 -2602.243)" clip-path="url(#clip-path-9)">
          <path id="Path_2831" data-name="Path 2831" d="M170.889,494.43,201.7,525.24l30.81-30.81L201.7,463.62Z" transform="translate(-188.749 -476.57)" fill="url(#linear-gradient-10)"/>
        </g>
        <g id="Group_1313" data-name="Group 1313" transform="translate(981.809 -2583.176)" clip-path="url(#clip-path-10)">
          <path id="Path_2833" data-name="Path 2833" d="M190.61,509.064l33.633,11.123,6.931-20.96L197.542,488.1Z" transform="translate(-194.262 -498.02)" fill="url(#linear-gradient-11)"/>
        </g>
        <g id="Group_1315" data-name="Group 1315" transform="translate(982.077 -2582.51)" clip-path="url(#clip-path-11)">
          <rect id="Rectangle_896" data-name="Rectangle 896" width="45.87" height="15.988" fill="url(#linear-gradient-12)"/>
        </g>
        <path id="Path_2873" data-name="Path 2873" d="M258.154,496.823c-2.433.117-4.105.294-6.057,1.832-.064.052-.131.1-.189.145a8.606,8.606,0,0,1-5.425,1.906,8.7,8.7,0,1,1,5.425-15.5,2.423,2.423,0,0,0,.189.154c1.952,1.536,3.624,1.711,6.057,1.835,1.431.065,5.841.261,9.171.4a21.262,21.262,0,0,0-35.845-10.483c-5.981,7.769-5.033,19.373,2.49,26.893,8.136,8.136,20.957,8.5,28.639.813a18.567,18.567,0,0,0,4.263-6.579c-.083.256-.163.5-.245.742.081-.2.162-.4.238-.6.192-.646.367-1.3.507-1.972-3.333.152-7.781.348-9.218.414" transform="translate(783.95 -3079.516)" fill="#f7941e"/>
      </g>
      <path id="Path_2875" data-name="Path 2875" d="M3.8-7.238a3.454,3.454,0,0,0,.079.725,1.723,1.723,0,0,0,.3.666,1.574,1.574,0,0,0,.6.481,2.246,2.246,0,0,0,.976.185q.343,0,.719-.026a2.97,2.97,0,0,0,.784-.171V-9.439h-1.4a2.15,2.15,0,0,0-.9.178A1.832,1.832,0,0,0,4.3-8.78a2,2,0,0,0-.382.7A2.779,2.779,0,0,0,3.8-7.238ZM11.549,0a8.317,8.317,0,0,1-1.3-.1A4.2,4.2,0,0,1,9.1-.448a3.02,3.02,0,0,1-.929-.686,2.869,2.869,0,0,1-.613-1.107q-.488.105-.982.171a7.523,7.523,0,0,1-1,.066A7.067,7.067,0,0,1,4.542-2.09a5.938,5.938,0,0,1-1.167-.3,5.6,5.6,0,0,1-1.154-.587,4.089,4.089,0,0,1-1-.936,4.631,4.631,0,0,1-.7-1.345A5.673,5.673,0,0,1,.264-7.08,5.586,5.586,0,0,1,.8-9.65,5.1,5.1,0,0,1,2.2-11.371a5.48,5.48,0,0,1,1.885-.962,7.369,7.369,0,0,1,2.037-.3H10.89v8.306a1.592,1.592,0,0,0,.178.9.922.922,0,0,0,.758.237h1.358a2.149,2.149,0,0,1,.422.04.639.639,0,0,1,.343.191,1.074,1.074,0,0,1,.231.455,3.182,3.182,0,0,1,.086.831,2.4,2.4,0,0,1-.257,1.312A.94.94,0,0,1,13.184,0ZM2.294-17.139a1.786,1.786,0,0,1,.138-.7,1.8,1.8,0,0,1,.389-.58,1.816,1.816,0,0,1,.573-.389,1.772,1.772,0,0,1,.705-.138,1.738,1.738,0,0,1,.692.138,1.74,1.74,0,0,1,.567.389,1.948,1.948,0,0,1,.389.58,1.716,1.716,0,0,1,.145.7,1.716,1.716,0,0,1-.145.7,1.864,1.864,0,0,1-.389.573,1.887,1.887,0,0,1-.567.389,1.67,1.67,0,0,1-.692.145,1.7,1.7,0,0,1-.705-.145,1.975,1.975,0,0,1-.573-.389,1.722,1.722,0,0,1-.389-.573A1.786,1.786,0,0,1,2.294-17.139Zm4.482,0a1.786,1.786,0,0,1,.138-.7,1.85,1.85,0,0,1,.382-.58,1.74,1.74,0,0,1,.567-.389,1.772,1.772,0,0,1,.705-.138,1.786,1.786,0,0,1,.7.138,1.722,1.722,0,0,1,.573.389,1.948,1.948,0,0,1,.389.58,1.716,1.716,0,0,1,.145.7,1.716,1.716,0,0,1-.145.7,1.864,1.864,0,0,1-.389.573,1.864,1.864,0,0,1-.573.389,1.716,1.716,0,0,1-.7.145,1.7,1.7,0,0,1-.705-.145,1.887,1.887,0,0,1-.567-.389,1.772,1.772,0,0,1-.382-.573A1.786,1.786,0,0,1,6.776-17.139Zm17.4,11.522a4.266,4.266,0,0,0-.112-.943,3.056,3.056,0,0,0-.363-.91,2.23,2.23,0,0,0-.653-.692,1.667,1.667,0,0,0-.969-.277,1.986,1.986,0,0,0-1.048.31,3.2,3.2,0,0,0-.923.89A5.208,5.208,0,0,0,19.419-5.8a8.272,8.272,0,0,0-.356,1.938,6.114,6.114,0,0,0,1.285.626,4.2,4.2,0,0,0,1.4.244,3.973,3.973,0,0,0,.883-.1,1.846,1.846,0,0,0,.778-.382,1.989,1.989,0,0,0,.554-.8A3.594,3.594,0,0,0,24.179-5.616Zm-8.345.237a12.98,12.98,0,0,1,1.074-3,7.159,7.159,0,0,1,1.444-1.945,4.839,4.839,0,0,1,1.76-1.055,6.356,6.356,0,0,1,2.01-.316,5.713,5.713,0,0,1,2.327.461,5.332,5.332,0,0,1,1.8,1.279,5.713,5.713,0,0,1,1.16,1.945,7.2,7.2,0,0,1,.409,2.472,6.817,6.817,0,0,1-.409,2.426,5.336,5.336,0,0,1-1.147,1.846,5.039,5.039,0,0,1-1.773,1.18A6.09,6.09,0,0,1,22.2.33,8.32,8.32,0,0,1,20.019.02a8.693,8.693,0,0,1-2.432-1.154,3.461,3.461,0,0,1-.732.633,3.074,3.074,0,0,1-.738.336,3.518,3.518,0,0,1-.778.138q-.4.026-.85.026H13.184a2.149,2.149,0,0,1-.422-.04.639.639,0,0,1-.343-.191,1.077,1.077,0,0,1-.231-.461,3.327,3.327,0,0,1-.086-.85,2.328,2.328,0,0,1,.257-1.3.955.955,0,0,1,.824-.349h.475a2.9,2.9,0,0,0,.692-.079,1.4,1.4,0,0,0,.593-.316,2.283,2.283,0,0,0,.494-.666A5.091,5.091,0,0,0,15.833-5.379Zm20.949,3.7a2.352,2.352,0,0,1-.264,1.312A.943.943,0,0,1,35.7,0H34.515a6.873,6.873,0,0,1-1.734-.2A3.422,3.422,0,0,1,31.423-.89a3.132,3.132,0,0,1-.89-1.292,5.605,5.605,0,0,1-.316-2.024V-18.853h3.639V-4.693a2.914,2.914,0,0,0,.086.784,1,1,0,0,0,.25.455.832.832,0,0,0,.415.211,2.839,2.839,0,0,0,.58.053H35.7a2.079,2.079,0,0,1,.409.04.639.639,0,0,1,.343.191,1.128,1.128,0,0,1,.237.455A2.965,2.965,0,0,1,36.782-1.674Zm7.04-6.9a4.622,4.622,0,0,0-1.641.25A5.849,5.849,0,0,0,41.12-7.8q.264.343.593.8t.686.936q.356.475.705.9a6.654,6.654,0,0,0,.653.705,2.972,2.972,0,0,0,.672-.6,4.608,4.608,0,0,0,.521-.765,4.31,4.31,0,0,0,.336-.791,2.374,2.374,0,0,0,.119-.679,1.931,1.931,0,0,0-.053-.428.9.9,0,0,0-.224-.415,1.321,1.321,0,0,0-.481-.31A2.24,2.24,0,0,0,43.822-8.569ZM38.087-3.19q.593,0,1.233-.04a10.877,10.877,0,0,0,1.233-.145l-2.782-3.6a6.668,6.668,0,0,1,.218-.771q.138-.4.31-.778a6.226,6.226,0,0,1,.363-.686,2.723,2.723,0,0,1,.376-.494,5.882,5.882,0,0,1,2.142-1.47,7.186,7.186,0,0,1,2.749-.521,6.858,6.858,0,0,1,2.235.33,4.7,4.7,0,0,1,1.575.87,3.542,3.542,0,0,1,.929,1.239,3.481,3.481,0,0,1,.31,1.424,3.959,3.959,0,0,1-.171,1.074,6.875,6.875,0,0,1-.494,1.233,7.435,7.435,0,0,1-.8,1.239,6.651,6.651,0,0,1-1.1,1.094H50.4a2.149,2.149,0,0,1,.422.04.639.639,0,0,1,.343.191A1.074,1.074,0,0,1,51.4-2.5a3.182,3.182,0,0,1,.086.831,2.352,2.352,0,0,1-.264,1.312A.943.943,0,0,1,50.4,0H46.406a5.615,5.615,0,0,1-.778-.059,6.918,6.918,0,0,1-.857-.178,5.534,5.534,0,0,1-.864-.316,4.393,4.393,0,0,1-.8-.475,20.665,20.665,0,0,1-2.432.745A10.659,10.659,0,0,1,38.206,0H35.675a2.149,2.149,0,0,1-.422-.04.639.639,0,0,1-.343-.191,1.077,1.077,0,0,1-.231-.461,3.327,3.327,0,0,1-.086-.85,2.328,2.328,0,0,1,.257-1.3.955.955,0,0,1,.824-.349Zm15.438,0V-18.853h3.639V0H50.4a2.149,2.149,0,0,1-.422-.04.639.639,0,0,1-.343-.191,1.077,1.077,0,0,1-.231-.461,3.327,3.327,0,0,1-.086-.85,2.328,2.328,0,0,1,.257-1.3A.955.955,0,0,1,50.4-3.19ZM64.1-18.853V0H60.46V-18.853ZM77.045-7.238a3.454,3.454,0,0,0,.079.725,1.723,1.723,0,0,0,.3.666,1.574,1.574,0,0,0,.6.481A2.246,2.246,0,0,0,79-5.181q.343,0,.719-.026a2.97,2.97,0,0,0,.784-.171V-9.439H79.1a2.15,2.15,0,0,0-.9.178,1.832,1.832,0,0,0-.646.481,2,2,0,0,0-.382.7A2.779,2.779,0,0,0,77.045-7.238ZM84.8,0a8.317,8.317,0,0,1-1.3-.1,4.2,4.2,0,0,1-1.154-.349,3.02,3.02,0,0,1-.929-.686A2.869,2.869,0,0,1,80.8-2.241q-.488.105-.982.171a7.523,7.523,0,0,1-1,.066A7.067,7.067,0,0,1,77.79-2.09a5.938,5.938,0,0,1-1.167-.3,5.6,5.6,0,0,1-1.154-.587,4.089,4.089,0,0,1-1-.936,4.631,4.631,0,0,1-.7-1.345,5.673,5.673,0,0,1-.264-1.819,5.586,5.586,0,0,1,.541-2.571,5.1,5.1,0,0,1,1.391-1.72,5.48,5.48,0,0,1,1.885-.962,7.369,7.369,0,0,1,2.037-.3h4.772v8.306a1.592,1.592,0,0,0,.178.9.922.922,0,0,0,.758.237h1.358a2.149,2.149,0,0,1,.422.04.639.639,0,0,1,.343.191,1.074,1.074,0,0,1,.231.455,3.182,3.182,0,0,1,.086.831,2.4,2.4,0,0,1-.257,1.312A.94.94,0,0,1,86.432,0ZM75.542-17.139a1.786,1.786,0,0,1,.138-.7,1.8,1.8,0,0,1,.389-.58,1.816,1.816,0,0,1,.573-.389,1.772,1.772,0,0,1,.705-.138,1.738,1.738,0,0,1,.692.138,1.74,1.74,0,0,1,.567.389,1.948,1.948,0,0,1,.389.58,1.716,1.716,0,0,1,.145.7,1.716,1.716,0,0,1-.145.7,1.864,1.864,0,0,1-.389.573,1.887,1.887,0,0,1-.567.389,1.67,1.67,0,0,1-.692.145,1.7,1.7,0,0,1-.705-.145,1.975,1.975,0,0,1-.573-.389,1.722,1.722,0,0,1-.389-.573A1.786,1.786,0,0,1,75.542-17.139Zm4.482,0a1.786,1.786,0,0,1,.138-.7,1.85,1.85,0,0,1,.382-.58,1.74,1.74,0,0,1,.567-.389,1.772,1.772,0,0,1,.705-.138,1.786,1.786,0,0,1,.7.138,1.722,1.722,0,0,1,.573.389,1.948,1.948,0,0,1,.389.58,1.716,1.716,0,0,1,.145.7,1.716,1.716,0,0,1-.145.7,1.864,1.864,0,0,1-.389.573,1.864,1.864,0,0,1-.573.389,1.716,1.716,0,0,1-.7.145,1.7,1.7,0,0,1-.705-.145,1.887,1.887,0,0,1-.567-.389,1.772,1.772,0,0,1-.382-.573A1.786,1.786,0,0,1,80.024-17.139ZM89.095-3.19a3.786,3.786,0,0,1-.231-.646q-.1-.369-.171-.751t-.105-.738q-.033-.356-.033-.62a5.585,5.585,0,0,1,.554-2.564A5.379,5.379,0,0,1,90.545-10.3a6,6,0,0,1,1.991-1.048,7.414,7.414,0,0,1,2.2-.343,8.007,8.007,0,0,1,.91.053q.461.053.883.138t.784.185a6.188,6.188,0,0,1,.6.191v3.283l-.9-.138-.883-.138q-.422-.066-.758-.105a4.824,4.824,0,0,0-.534-.04,4.43,4.43,0,0,0-1.391.191,2.645,2.645,0,0,0-.936.514,1.964,1.964,0,0,0-.534.765,2.546,2.546,0,0,0-.171.929,3.233,3.233,0,0,0,.165,1.042,2.168,2.168,0,0,0,.527.85,2.534,2.534,0,0,0,.943.573,4.1,4.1,0,0,0,1.4.211h4.4V0H86.432a2.149,2.149,0,0,1-.422-.04.639.639,0,0,1-.343-.191,1.077,1.077,0,0,1-.231-.461,3.327,3.327,0,0,1-.086-.85,2.328,2.328,0,0,1,.257-1.3.955.955,0,0,1,.824-.349Zm16.229-15.662V0h-3.639V-18.853ZM118.3-3.507a3.951,3.951,0,0,1-.231,1.351,3.012,3.012,0,0,1-.712,1.121,3.359,3.359,0,0,1-1.226.758A5.094,5.094,0,0,1,114.354,0h-6.724V-3.19h5.432a3.059,3.059,0,0,0,1.009-.132.473.473,0,0,0,.363-.461,1.314,1.314,0,0,0-.046-.343,2.038,2.038,0,0,0-.211-.455q-.165-.283-.481-.758t-.857-1.252l-2.188-3.3,3.27-2.1,2.426,3.916q.488.791.857,1.444t.613,1.2a6.353,6.353,0,0,1,.363,1.015A3.671,3.671,0,0,1,118.3-3.507Zm-8.279-12.261a1.786,1.786,0,0,1,.138-.7,1.8,1.8,0,0,1,.389-.58,1.816,1.816,0,0,1,.573-.389,1.772,1.772,0,0,1,.705-.138,1.738,1.738,0,0,1,.692.138,1.74,1.74,0,0,1,.567.389,1.948,1.948,0,0,1,.389.58,1.716,1.716,0,0,1,.145.7,1.716,1.716,0,0,1-.145.7,1.864,1.864,0,0,1-.389.573,1.887,1.887,0,0,1-.567.389,1.67,1.67,0,0,1-.692.145,1.7,1.7,0,0,1-.705-.145,1.975,1.975,0,0,1-.573-.389,1.722,1.722,0,0,1-.389-.573A1.786,1.786,0,0,1,110.017-15.768Zm24.877-3.085V0H120.538V-3.19h4.509L122.99-15.715h3.639L128.777-3.19h2.479V-18.853ZM129.12,6.592H124.2V4.878h1.015a1.561,1.561,0,0,1-.178-.514,3,3,0,0,1-.059-.541,2.4,2.4,0,0,1,.2-1A2.161,2.161,0,0,1,125.7,2.1a2.264,2.264,0,0,1,.732-.442,2.407,2.407,0,0,1,.844-.152,3.332,3.332,0,0,1,.738.073,5.435,5.435,0,0,1,.58.165V3.4q-.33-.066-.567-.1a2.839,2.839,0,0,0-.356-.033.941.941,0,0,0-.705.218.8.8,0,0,0-.2.573.842.842,0,0,0,.211.58,1.08,1.08,0,0,0,.817.237h1.332Zm12.709-25.444V0H138.19V-18.853Z" transform="translate(143 166)" fill="#8b8d8f"/>
    </g>
  </g>
</svg>
